# xmcd
# Track frame offsets:
# 150
# 11579
# 25374
# 43886
# 64884
#
# Disc length: 1033 seconds
# Revision: 0
# Processed by: cddbd v1.5.2PL0 Copyright (c) Steve Scherf et al.
# Submitted via: VisiTrax 2.10.3.257 - For more info visit www.synapsa.com
#
DISCID=3f040705
DTITLE=Various Artist - Universal Music Country Sampler
DYEAR=2006
DGENRE=
TTITLE0=Morrison, Van - Youre cheatin heart
TTITLE1=Thompson, Teddy - I Should get Up
TTITLE2=Jennings, Shooter - Gone to Carolina
TTITLE3=Brooks, Garth and Trisha Yearwood - Love will always Win
TTITLE4=Bill Currington - Why! Why! Why!
EXTD=
EXTT0=
EXTT1=
EXTT2=
EXTT3=
EXTT4=
PLAYORDER=
